<svg width="65" height="64" viewBox="0 0 65 64" fill="none" xmlns="http://www.w3.org/2000/svg">
<path d="M35.964 8.39465L58.988 48.272C59.339 48.8801 59.5239 49.5698 59.5239 50.272C59.5239 50.9741 59.3391 51.6639 58.988 52.2719C58.6369 52.88 58.132 53.385 57.5239 53.736C56.9159 54.0871 56.2261 54.272 55.524 54.272H9.47597C8.77383 54.272 8.08407 54.0871 7.47601 53.736C6.86795 53.385 6.36301 52.88 6.01195 52.2719C5.66089 51.6639 5.47607 50.9741 5.47607 50.272C5.47608 49.5698 5.6609 48.8801 6.01197 48.272L29.036 8.39465C30.5746 5.72799 34.4226 5.72799 35.964 8.39465ZM32.5 40C31.7927 40 31.1145 40.2809 30.6144 40.781C30.1143 41.2811 29.8333 41.9594 29.8333 42.6667C29.8333 43.3739 30.1143 44.0522 30.6144 44.5523C31.1145 45.0524 31.7927 45.3333 32.5 45.3333C33.2072 45.3333 33.8855 45.0524 34.3856 44.5523C34.8857 44.0522 35.1666 43.3739 35.1666 42.6667C35.1666 41.9594 34.8857 41.2811 34.3856 40.781C33.8855 40.2809 33.2072 40 32.5 40ZM32.5 21.3333C31.8468 21.3334 31.2164 21.5732 30.7283 22.0072C30.2402 22.4413 29.9284 23.0393 29.852 23.688L29.8333 24V34.6667C29.8341 35.3463 30.0943 36.0001 30.5609 36.4943C31.0275 36.9885 31.6652 37.2859 32.3437 37.3258C33.0222 37.3656 33.6903 37.1449 34.2115 36.7086C34.7327 36.2724 35.0677 35.6536 35.148 34.9787L35.1666 34.6667V24C35.1666 23.2927 34.8857 22.6145 34.3856 22.1144C33.8855 21.6143 33.2072 21.3333 32.5 21.3333Z" fill="#D01417"/>
</svg>
