<svg width="12" height="13" viewBox="0 0 12 13" fill="none" xmlns="http://www.w3.org/2000/svg">
<path d="M10.6667 11.7H1.33333V4.55H10.6667M8.66667 0V1.3H3.33333V0H2V1.3H1.33333C0.593333 1.3 0 1.8785 0 2.6V11.7C0 12.0448 0.140476 12.3754 0.390524 12.6192C0.640573 12.863 0.979711 13 1.33333 13H10.6667C11.0203 13 11.3594 12.863 11.6095 12.6192C11.8595 12.3754 12 12.0448 12 11.7V2.6C12 2.25522 11.8595 1.92456 11.6095 1.68076C11.3594 1.43696 11.0203 1.3 10.6667 1.3H10V0M9.33333 7.15H6V10.4H9.33333V7.15Z" fill="black"/>
</svg>
