<svg width="25" height="26" viewBox="0 0 25 26" fill="none" xmlns="http://www.w3.org/2000/svg">
<path fill-rule="evenodd" clip-rule="evenodd" d="M18.5268 0.5C17.9104 0.5 17.4107 0.999682 17.4107 1.61607C17.4107 2.23246 17.9104 2.73214 18.5268 2.73214H22.2257C22.5252 2.73214 22.7679 2.97484 22.7679 3.27423V6.97321C22.7679 7.58961 23.2675 8.08929 23.8839 8.08929C24.5004 8.08929 25 7.58961 25 6.97321V3.27423C25 1.74207 23.7579 0.5 22.2257 0.5H18.5268ZM1.11607 17.9107C1.73246 17.9107 2.23214 18.4104 2.23214 19.0268V22.7257C2.23214 23.0252 2.47484 23.2679 2.77423 23.2679H6.47321C7.08961 23.2679 7.58929 23.7675 7.58929 24.3839C7.58929 25.0004 7.08961 25.5 6.47321 25.5H2.77423C1.24207 25.5 0 24.2579 0 22.7257V19.0268C0 18.4104 0.499682 17.9107 1.11607 17.9107ZM23.8839 17.9107C24.5004 17.9107 25 18.4104 25 19.0268V22.7257C25 24.2579 23.7579 25.5 22.2257 25.5H18.5268C17.9104 25.5 17.4107 25.0004 17.4107 24.3839C17.4107 23.7675 17.9104 23.2679 18.5268 23.2679H22.2257C22.5252 23.2679 22.7679 23.0252 22.7679 22.7257V19.0268C22.7679 18.4104 23.2675 17.9107 23.8839 17.9107ZM2.77423 2.73214C2.47484 2.73214 2.23214 2.97484 2.23214 3.27423V6.97321C2.23214 7.58961 1.73246 8.08929 1.11607 8.08929C0.499682 8.08929 0 7.58961 0 6.97321V3.27423C0 1.74207 1.24207 0.5 2.77423 0.5H6.47321C7.08961 0.5 7.58929 0.999682 7.58929 1.61607C7.58929 2.23246 7.08961 2.73214 6.47321 2.73214H2.77423ZM1.5625 11.4375C0.699555 11.4375 0 12.1371 0 13C0 13.8629 0.699555 14.5625 1.5625 14.5625H23.4375C24.3004 14.5625 25 13.8629 25 13C25 12.1371 24.3004 11.4375 23.4375 11.4375H1.5625Z" fill="white"/>
</svg>
