<svg width="20" height="20" viewBox="0 0 20 20" fill="none" xmlns="http://www.w3.org/2000/svg">
<path d="M17.5 18.125C17.5 18.2908 17.4341 18.4497 17.3169 18.5669C17.1997 18.6841 17.0407 18.75 16.875 18.75H8.74998C8.58422 18.75 8.42525 18.6841 8.30804 18.5669C8.19083 18.4497 8.12498 18.2908 8.12498 18.125C8.12498 17.9592 8.19083 17.8003 8.30804 17.6831C8.42525 17.5658 8.58422 17.5 8.74998 17.5H16.875C17.0407 17.5 17.1997 17.5658 17.3169 17.6831C17.4341 17.8003 17.5 17.9592 17.5 18.125ZM16.25 11.25H11.2328L8.74998 6.24999L9.85857 4.19374C9.8619 4.18826 9.86478 4.18251 9.86717 4.17656C10.0153 3.88014 10.0397 3.53703 9.93493 3.22264C9.83018 2.90826 9.60489 2.64833 9.30857 2.49999L9.27185 2.48281L6.6406 1.37265C6.34515 1.23154 6.00613 1.212 5.69642 1.3182C5.38671 1.42441 5.13103 1.6479 4.98435 1.94062L3.25623 5.37812C3.16991 5.55195 3.125 5.74341 3.125 5.93749C3.125 6.13158 3.16991 6.32303 3.25623 6.49687L7.79607 15.5594C7.89949 15.7674 8.05909 15.9424 8.25681 16.0645C8.45452 16.1865 8.68247 16.2508 8.91482 16.25H16.25C16.5815 16.25 16.8994 16.1183 17.1339 15.8839C17.3683 15.6495 17.5 15.3315 17.5 15V12.5C17.5 12.1685 17.3683 11.8505 17.1339 11.6161C16.8994 11.3817 16.5815 11.25 16.25 11.25Z" fill="white"/>
</svg>
