<svg width="16" height="17" viewBox="0 0 16 17" fill="none" xmlns="http://www.w3.org/2000/svg">
<path fill-rule="evenodd" clip-rule="evenodd" d="M4.99992 1.5545C4.82311 1.5545 4.65354 1.62615 4.52851 1.75367C4.40349 1.8812 4.33325 2.05416 4.33325 2.2345V10.3945C4.33325 10.5749 4.40349 10.7478 4.52851 10.8753C4.65354 11.0029 4.82311 11.0745 4.99992 11.0745C5.17673 11.0745 5.3463 11.0029 5.47132 10.8753C5.59635 10.7478 5.66659 10.5749 5.66659 10.3945V2.2345C5.66659 2.05416 5.59635 1.8812 5.47132 1.75367C5.3463 1.62615 5.17673 1.5545 4.99992 1.5545Z" fill="white"/>
<path fill-rule="evenodd" clip-rule="evenodd" d="M5.47122 1.75378C5.34621 1.6263 5.17667 1.55469 4.99989 1.55469C4.82312 1.55469 4.65358 1.6263 4.52856 1.75378L2.19522 4.13378C2.13155 4.19651 2.08076 4.27154 2.04582 4.35451C2.01088 4.43747 1.99249 4.5267 1.99172 4.61699C1.99096 4.70728 2.00782 4.79682 2.04134 4.88039C2.07486 4.96396 2.12437 5.03988 2.18696 5.10373C2.24956 5.16758 2.32399 5.21807 2.40592 5.25226C2.48785 5.28645 2.57564 5.30366 2.66416 5.30287C2.75268 5.30209 2.84016 5.28333 2.92149 5.24769C3.00283 5.21205 3.07639 5.16025 3.13789 5.0953L4.99989 3.19606L6.86189 5.0953C6.92339 5.16025 6.99695 5.21205 7.07829 5.24769C7.15962 5.28333 7.2471 5.30209 7.33562 5.30287C7.42414 5.30366 7.51193 5.28645 7.59386 5.25226C7.67579 5.21807 7.75023 5.16758 7.81282 5.10373C7.87542 5.03988 7.92492 4.96396 7.95844 4.88039C7.99196 4.79682 8.00883 4.70728 8.00806 4.61699C8.00729 4.5267 7.9889 4.43747 7.95396 4.35451C7.91902 4.27154 7.86823 4.19651 7.80456 4.13378L5.47122 1.75378Z" fill="white"/>
<path fill-rule="evenodd" clip-rule="evenodd" d="M10.9999 15.1545C11.1767 15.1545 11.3463 15.0829 11.4713 14.9554C11.5963 14.8278 11.6666 14.6549 11.6666 14.4745V6.31452C11.6666 6.13417 11.5963 5.96121 11.4713 5.83369C11.3463 5.70616 11.1767 5.63452 10.9999 5.63452C10.8231 5.63452 10.6535 5.70616 10.5285 5.83369C10.4035 5.96121 10.3333 6.13417 10.3333 6.31452V14.4745C10.3333 14.6549 10.4035 14.8278 10.5285 14.9554C10.6535 15.0829 10.8231 15.1545 10.9999 15.1545Z" fill="white" fill-opacity="0.3"/>
<path fill-rule="evenodd" clip-rule="evenodd" d="M10.5285 14.9553C10.6535 15.0827 10.8231 15.1543 10.9999 15.1543C11.1766 15.1543 11.3462 15.0827 11.4712 14.9553L13.8045 12.5753C13.926 12.447 13.9932 12.2752 13.9916 12.0969C13.9901 11.9186 13.92 11.7481 13.7964 11.622C13.6728 11.4959 13.5056 11.4244 13.3308 11.4229C13.156 11.4213 12.9876 11.4899 12.8619 11.6137L10.9999 13.513L9.13786 11.6137C9.01213 11.4899 8.84373 11.4213 8.66893 11.4229C8.49413 11.4244 8.32692 11.4959 8.20332 11.622C8.07971 11.7481 8.0096 11.9186 8.00808 12.0969C8.00656 12.2752 8.07376 12.447 8.1952 12.5753L10.5285 14.9553Z" fill="white" fill-opacity="0.3"/>
</svg>
