<svg width="24" height="25" viewBox="0 0 24 25" fill="none" xmlns="http://www.w3.org/2000/svg">
<path fill-rule="evenodd" clip-rule="evenodd" d="M7.5 2.28601C7.23478 2.28601 6.98043 2.39137 6.79289 2.5789C6.60536 2.76644 6.5 3.02079 6.5 3.28601V15.286C6.5 15.5512 6.60536 15.8056 6.79289 15.9931C6.98043 16.1807 7.23478 16.286 7.5 16.286C7.76522 16.286 8.01957 16.1807 8.20711 15.9931C8.39464 15.8056 8.5 15.5512 8.5 15.286V3.28601C8.5 3.02079 8.39464 2.76644 8.20711 2.5789C8.01957 2.39137 7.76522 2.28601 7.5 2.28601Z" fill="white" fill-opacity="0.3"/>
<path fill-rule="evenodd" clip-rule="evenodd" d="M8.20692 2.57904C8.01939 2.39157 7.76508 2.28625 7.49992 2.28625C7.23475 2.28625 6.98045 2.39157 6.79292 2.57904L3.29292 6.07904C3.11076 6.26764 3.00997 6.52025 3.01224 6.78244C3.01452 7.04464 3.11969 7.29545 3.3051 7.48086C3.49051 7.66627 3.74132 7.77144 4.00352 7.77372C4.26571 7.77599 4.51832 7.6752 4.70692 7.49304L7.49992 4.70004L10.2929 7.49304C10.3852 7.58855 10.4955 7.66473 10.6175 7.71714C10.7395 7.76955 10.8707 7.79714 11.0035 7.79829C11.1363 7.79945 11.268 7.77414 11.3909 7.72386C11.5138 7.67358 11.6254 7.59933 11.7193 7.50544C11.8132 7.41154 11.8875 7.29989 11.9377 7.177C11.988 7.0541 12.0133 6.92242 12.0122 6.78964C12.011 6.65686 11.9834 6.52564 11.931 6.40364C11.8786 6.28163 11.8024 6.17129 11.7069 6.07904L8.20692 2.57904Z" fill="white" fill-opacity="0.3"/>
<path fill-rule="evenodd" clip-rule="evenodd" d="M16.5 22.286C16.7652 22.286 17.0196 22.1807 17.2071 21.9931C17.3946 21.8056 17.5 21.5512 17.5 21.286V9.28601C17.5 9.02079 17.3946 8.76644 17.2071 8.5789C17.0196 8.39137 16.7652 8.28601 16.5 8.28601C16.2348 8.28601 15.9804 8.39137 15.7929 8.5789C15.6054 8.76644 15.5 9.02079 15.5 9.28601V21.286C15.5 21.5512 15.6054 21.8056 15.7929 21.9931C15.9804 22.1807 16.2348 22.286 16.5 22.286Z" fill="white"/>
<path fill-rule="evenodd" clip-rule="evenodd" d="M15.7929 21.993C15.9804 22.1805 16.2348 22.2858 16.4999 22.2858C16.7651 22.2858 17.0194 22.1805 17.2069 21.993L20.7069 18.493C20.8891 18.3044 20.9899 18.0518 20.9876 17.7896C20.9853 17.5274 20.8801 17.2766 20.6947 17.0912C20.5093 16.9058 20.2585 16.8006 19.9963 16.7983C19.7341 16.796 19.4815 16.8968 19.2929 17.079L16.4999 19.872L13.7069 17.079C13.5183 16.8968 13.2657 16.796 13.0035 16.7983C12.7413 16.8006 12.4905 16.9058 12.3051 17.0912C12.1197 17.2766 12.0145 17.5274 12.0122 17.7896C12.01 18.0518 12.1108 18.3044 12.2929 18.493L15.7929 21.993Z" fill="white"/>
</svg>
