<svg width="65" height="65" viewBox="0 0 65 65" fill="none" xmlns="http://www.w3.org/2000/svg">
<path d="M32.4999 53.1667C27.0187 53.1667 21.7621 50.9893 17.8863 47.1136C14.0106 43.2378 11.8332 37.9812 11.8332 32.5H5.16653C5.16653 47.5934 17.4065 59.8334 32.4999 59.8334V53.1667ZM32.4999 11.8334C37.981 11.8334 43.2376 14.0107 47.1134 17.8865C50.9891 21.7622 53.1665 27.0189 53.1665 32.5H59.8332C59.8332 17.404 47.5932 5.16669 32.4999 5.16669V11.8334ZM11.8332 32.5C11.8332 26.7934 14.1425 21.6307 17.8865 17.8867L13.1719 13.172C10.6302 15.7076 8.61458 18.7204 7.24077 22.0373C5.86696 25.3542 5.16205 28.9099 5.16653 32.5H11.8332ZM17.8865 17.8867C19.8029 15.964 22.0807 14.4394 24.5886 13.4005C27.0966 12.3616 29.7852 11.829 32.4999 11.8334V5.16669C24.9532 5.16669 18.1159 8.23069 13.1719 13.172L17.8865 17.8867ZM13.1719 17.8867L47.1132 51.828L51.8279 47.1134L17.8865 13.172L13.1719 17.8867ZM53.1665 32.5C53.1665 38.2067 50.8572 43.3694 47.1132 47.1134L51.8279 51.828C54.3695 49.2924 56.3851 46.2796 57.7589 42.9627C59.1328 39.6458 59.8377 36.0902 59.8332 32.5H53.1665ZM47.1132 47.1134C45.1968 49.036 42.9191 50.5606 40.4111 51.5995C37.9031 52.6384 35.2145 53.171 32.4999 53.1667V59.8334C40.0465 59.8334 46.8839 56.7694 51.8279 51.828L47.1132 47.1134Z" fill="#4C85D0"/>
</svg>
